<svg width="1440" height="1024" viewBox="0 0 1440 1024" fill="none" xmlns="http://www.w3.org/2000/svg">
<g id="Desktop - 1">
<path id="Vector" d="M602.644 851.194C797.048 851.194 954.644 843.135 954.644 833.194C954.644 823.253 797.048 815.194 602.644 815.194C408.239 815.194 250.644 823.253 250.644 833.194C250.644 843.135 408.239 851.194 602.644 851.194Z" fill="#F2F2F2"/>
<path id="Vector_2" d="M808.297 278.947H804.298V169.402C804.298 152.587 797.619 136.46 785.728 124.57C773.838 112.68 757.712 106 740.897 106H508.81C491.995 106 475.868 112.68 463.978 124.57C452.088 136.46 445.408 152.586 445.408 169.402V770.376C445.408 787.191 452.088 803.318 463.978 815.208C475.868 827.098 491.994 833.778 508.81 833.778H740.896C757.711 833.778 773.838 827.098 785.728 815.208C797.618 803.318 804.298 787.192 804.298 770.376V356.923H808.297L808.297 278.947Z" fill="#3F3D56"/>
<path id="Vector_3" d="M790.9 167.35V767.44C790.9 779.998 785.911 792.041 777.031 800.921C768.151 809.801 756.108 814.79 743.55 814.79H510.35C497.792 814.79 485.749 809.801 476.869 800.921C467.989 792.041 463 779.998 463 767.44V167.35C463 154.792 467.989 142.749 476.869 133.869C485.749 124.989 497.792 120 510.35 120H538.64C537.25 123.416 536.72 127.121 537.098 130.79C537.476 134.458 538.75 137.978 540.807 141.039C542.865 144.099 545.643 146.608 548.897 148.343C552.151 150.078 555.782 150.987 559.47 150.99H692.43C696.118 150.987 699.749 150.078 703.003 148.343C706.257 146.608 709.035 144.099 711.093 141.039C713.15 137.978 714.424 134.458 714.801 130.79C715.179 127.121 714.65 123.416 713.26 120H743.55C756.108 120 768.151 124.989 777.031 133.869C785.911 142.749 790.9 154.792 790.9 167.35V167.35Z" fill="white"/>
<g id="FirstHead">
<path id="Vector_4" d="M715.678 428.6C714.127 429.41 712.551 430.177 710.947 430.9C709.487 431.56 708.004 432.18 706.498 432.76C705.947 432.97 705.388 433.18 704.828 433.39C700.4 434.996 695.852 436.25 691.228 437.14C688.937 437.59 686.617 437.944 684.268 438.2C682.328 438.42 680.368 438.577 678.388 438.67C676.977 438.74 675.567 438.77 674.147 438.77C668.524 438.773 662.913 438.247 657.388 437.2C655.947 436.94 654.538 436.63 653.127 436.29C646.307 434.656 639.704 432.219 633.457 429.03C632.897 428.75 632.337 428.45 631.777 428.16C630.947 427.72 630.138 427.26 629.328 426.78C629.717 426.24 630.138 425.71 630.567 425.19C635.247 419.391 641.095 414.644 647.732 411.257C654.369 407.869 661.646 405.919 669.087 405.532C676.528 405.145 683.968 406.331 690.92 409.011C697.873 411.692 704.182 415.808 709.437 421.09C711.261 422.921 712.952 424.879 714.497 426.95C714.907 427.49 715.297 428.04 715.678 428.6Z" fill="#6C63FF"/>
<path id="Vector_5" d="M676.143 384.673C700.394 384.673 720.053 365.014 720.053 340.764C720.053 316.513 700.394 296.854 676.143 296.854C651.893 296.854 632.233 316.513 632.233 340.764C632.233 365.014 651.893 384.673 676.143 384.673Z" fill="#2F2E41"/>
<path id="Vector_6" d="M687.822 384.735C703.659 376.078 709.48 356.221 700.822 340.384C692.165 324.546 672.308 318.726 656.471 327.383C640.633 336.041 634.813 355.898 643.47 371.735C652.128 387.572 671.985 393.393 687.822 384.735Z" fill="#A0616A"/>
<path id="Vector_7" d="M706.486 335.503C699.018 340.65 690.154 343.39 681.084 343.353C684.32 345.597 688.003 347.112 691.88 347.795C679.821 350.382 667.358 350.452 655.27 348.001C652.583 347.57 649.991 346.679 647.606 345.368C646.418 344.705 645.383 343.799 644.568 342.709C643.753 341.619 643.176 340.369 642.876 339.042C642.073 334.453 645.648 330.284 649.364 327.475C655.053 323.239 661.612 320.32 668.568 318.93C675.523 317.541 682.7 317.714 689.58 319.438C694.073 320.6 698.573 322.562 701.491 326.169C704.409 329.777 705.274 335.339 702.493 339.054L706.486 335.503Z" fill="#2F2E41"/>
<path id="Vector_8" d="M674.147 258.77C654.52 258.767 635.429 265.182 619.785 277.037C604.142 288.891 592.803 305.535 587.497 324.433C582.192 343.33 583.21 363.443 590.397 381.708C597.585 399.973 610.547 415.387 627.308 425.6L627.888 425.94C628.368 426.23 628.848 426.51 629.328 426.78C630.138 427.26 630.947 427.72 631.777 428.16C632.337 428.45 632.897 428.75 633.458 429.03C639.704 432.219 646.307 434.656 653.127 436.29C654.538 436.63 655.947 436.94 657.388 437.2C662.913 438.247 668.524 438.773 674.147 438.77C675.567 438.77 676.978 438.74 678.388 438.67C680.368 438.58 682.328 438.424 684.268 438.2C686.618 437.94 688.938 437.587 691.228 437.14C695.853 436.25 700.4 434.996 704.828 433.39C705.388 433.18 705.947 432.97 706.498 432.76C708.007 432.18 709.491 431.56 710.947 430.9C712.547 430.18 714.124 429.414 715.678 428.6C731.245 420.448 744.112 407.952 752.717 392.63C752.757 392.55 752.808 392.47 752.848 392.39C757.439 384.152 760.696 375.238 762.498 365.98C765.027 352.948 764.644 339.517 761.375 326.65C758.107 313.783 752.034 301.797 743.591 291.552C735.148 281.307 724.544 273.055 712.539 267.388C700.533 261.721 687.423 258.778 674.148 258.77H674.147ZM751.208 391.22C751.127 391.36 751.058 391.5 750.978 391.63C742.544 406.726 729.858 419.009 714.497 426.95C712.967 427.75 711.411 428.5 709.828 429.2C708.518 429.79 707.178 430.35 705.828 430.87C705.257 431.09 704.678 431.31 704.098 431.51C700.272 432.908 696.352 434.03 692.368 434.87C689.412 435.5 686.424 435.97 683.417 436.28C681.567 436.48 679.687 436.62 677.797 436.69C676.587 436.74 675.368 436.77 674.147 436.77C668.705 436.777 663.275 436.271 657.928 435.26C654.675 434.66 651.459 433.872 648.297 432.9C643.481 431.412 638.801 429.515 634.308 427.23C633.788 426.96 633.268 426.69 632.757 426.41C632.027 426.02 631.288 425.62 630.567 425.19C630.027 424.89 629.487 424.57 628.957 424.25C628.647 424.07 628.337 423.88 628.027 423.69C613.332 414.666 601.609 401.525 594.314 385.899C587.019 370.272 584.472 352.848 586.99 335.788C589.507 318.727 596.978 302.781 608.475 289.928C619.973 277.075 634.991 267.88 651.667 263.484C668.343 259.088 685.942 259.685 702.281 265.201C718.621 270.716 732.981 280.908 743.582 294.51C754.182 308.113 760.555 324.529 761.911 341.721C763.266 358.913 759.545 376.124 751.207 391.22H751.208Z" fill="#3F3D56"/>
<path id="Vector_9" d="M653.907 297.46C653.435 292.492 647.348 289.433 642.589 290.934C637.83 292.435 634.705 297.227 633.76 302.127C633.306 304.191 633.263 306.324 633.635 308.404C634.006 310.484 634.785 312.471 635.926 314.249C638.331 317.712 642.752 319.872 646.876 318.993C651.583 317.99 654.844 313.394 655.777 308.672C656.71 303.951 655.784 299.083 654.858 294.36L653.907 297.46Z" fill="#2F2E41"/>
<path id="Vector_10" d="M720.889 304.557C720.417 299.589 714.331 296.53 709.571 298.031C704.812 299.532 701.687 304.324 700.743 309.224C700.288 311.288 700.246 313.421 700.617 315.501C700.989 317.581 701.767 319.568 702.908 321.346C705.314 324.809 709.735 326.969 713.858 326.09C718.565 325.087 721.826 320.491 722.759 315.769C723.692 311.048 722.766 306.18 721.841 301.457L720.889 304.557Z" fill="#2F2E41"/>
</g>
<g id="ChatBox1">
<path id="Vector_11" d="M518.584 384.739C517.961 384.738 517.345 384.608 516.776 384.356C516.207 384.103 515.696 383.735 515.277 383.275L465.655 329.141C465.092 328.528 464.408 328.039 463.646 327.704C462.884 327.368 462.061 327.195 461.229 327.194H199.009C195.03 327.189 191.215 325.607 188.401 322.793C185.587 319.979 184.004 316.164 184 312.185V217.622C184.004 213.643 185.587 209.828 188.401 207.014C191.215 204.2 195.03 202.617 199.009 202.613H538.734C542.714 202.617 546.529 204.2 549.343 207.014C552.157 209.828 553.739 213.643 553.744 217.622V312.185C553.739 316.164 552.157 319.979 549.343 322.793C546.529 325.607 542.714 327.189 538.734 327.194H529.103C527.511 327.196 525.985 327.829 524.859 328.955C523.733 330.081 523.1 331.607 523.099 333.199V380.232C523.102 381.14 522.83 382.028 522.317 382.777C521.805 383.527 521.076 384.102 520.228 384.428C519.704 384.633 519.147 384.738 518.584 384.739V384.739Z" fill="white"/>
<path id="Vector_12" d="M422.72 274.097H214.332C213.411 274.098 212.5 273.918 211.649 273.566C210.798 273.215 210.025 272.699 209.374 272.048C208.722 271.398 208.206 270.625 207.853 269.775C207.5 268.924 207.319 268.013 207.319 267.092C207.319 266.172 207.5 265.26 207.853 264.41C208.206 263.559 208.722 262.787 209.374 262.136C210.025 261.486 210.798 260.97 211.649 260.618C212.5 260.267 213.411 260.087 214.332 260.088H422.72C424.578 260.088 426.36 260.826 427.673 262.139C428.987 263.453 429.725 265.235 429.725 267.092C429.725 268.95 428.987 270.732 427.673 272.045C426.36 273.359 424.578 274.097 422.72 274.097Z" fill="#E6E6E6"/>
<path id="Vector_13" d="M523.412 303.867H214.332C213.411 303.868 212.5 303.687 211.649 303.336C210.798 302.984 210.025 302.469 209.374 301.818C208.722 301.167 208.206 300.395 207.853 299.544C207.5 298.694 207.319 297.783 207.319 296.862C207.319 295.941 207.5 295.03 207.853 294.18C208.206 293.329 208.722 292.557 209.374 291.906C210.025 291.255 210.798 290.74 211.649 290.388C212.5 290.037 213.411 289.856 214.332 289.857H523.412C525.268 289.86 527.048 290.599 528.36 291.912C529.671 293.225 530.408 295.006 530.408 296.862C530.408 298.718 529.671 300.499 528.36 301.812C527.048 303.125 525.268 303.864 523.412 303.867V303.867Z" fill="#E6E6E6"/>
<path id="Vector_14" d="M518.584 384.739C517.961 384.738 517.345 384.608 516.776 384.356C516.207 384.103 515.696 383.735 515.277 383.275L465.655 329.141C465.092 328.528 464.408 328.039 463.646 327.704C462.884 327.368 462.061 327.195 461.229 327.194H199.009C195.03 327.189 191.215 325.607 188.401 322.793C185.587 319.979 184.004 316.164 184 312.185V217.622C184.004 213.643 185.587 209.828 188.401 207.014C191.215 204.2 195.03 202.617 199.009 202.613H538.734C542.714 202.617 546.529 204.2 549.343 207.014C552.157 209.828 553.739 213.643 553.744 217.622V312.185C553.739 316.164 552.157 319.979 549.343 322.793C546.529 325.607 542.714 327.189 538.734 327.194H529.103C527.511 327.196 525.985 327.829 524.859 328.955C523.733 330.081 523.1 331.607 523.099 333.199V380.232C523.102 381.14 522.83 382.028 522.317 382.777C521.805 383.527 521.076 384.102 520.228 384.428C519.704 384.633 519.147 384.738 518.584 384.739V384.739ZM199.009 204.613C195.56 204.617 192.253 205.989 189.815 208.428C187.376 210.866 186.004 214.173 186 217.622V312.185C186.004 315.634 187.376 318.94 189.815 321.379C192.254 323.818 195.56 325.19 199.009 325.194H461.229C462.338 325.195 463.436 325.426 464.451 325.873C465.467 326.32 466.379 326.973 467.129 327.79L516.751 381.923C517.092 382.295 517.537 382.555 518.028 382.669C518.519 382.783 519.033 382.747 519.503 382.564C519.973 382.381 520.377 382.061 520.661 381.645C520.946 381.229 521.098 380.736 521.099 380.232V333.199C521.101 331.077 521.945 329.042 523.446 327.541C524.946 326.04 526.981 325.196 529.103 325.194H538.734C542.184 325.19 545.49 323.818 547.929 321.379C550.368 318.94 551.74 315.634 551.744 312.185V217.622C551.74 214.173 550.368 210.866 547.929 208.428C545.49 205.989 542.184 204.617 538.734 204.613H199.009Z" fill="#3F3D56"/>
<path id="Vector_15" d="M220.816 244.327C228.07 244.327 233.95 238.447 233.95 231.193C233.95 223.94 228.07 218.06 220.816 218.06C213.562 218.06 207.682 223.94 207.682 231.193C207.682 238.447 213.562 244.327 220.816 244.327Z" fill="#6C63FF"/>
</g>
<g id="ChatBox2">
<path id="Vector_16" d="M739.067 705.428C738.219 705.102 737.49 704.527 736.978 703.777C736.465 703.028 736.193 702.14 736.196 701.232V654.199C736.195 652.607 735.561 651.081 734.436 649.955C733.31 648.829 731.784 648.196 730.192 648.194H720.56C716.581 648.189 712.766 646.607 709.952 643.793C707.138 640.979 705.556 637.164 705.551 633.185V538.622C705.556 534.643 707.138 530.828 709.952 528.014C712.766 525.2 716.581 523.617 720.56 523.613H1060.29C1064.26 523.617 1068.08 525.2 1070.89 528.014C1073.71 530.828 1075.29 534.643 1075.29 538.622V633.185C1075.29 637.164 1073.71 640.979 1070.89 643.793C1068.08 646.607 1064.26 648.189 1060.29 648.194H798.066C797.234 648.195 796.411 648.368 795.649 648.704C794.887 649.039 794.203 649.528 793.64 650.141L744.018 704.275C743.599 704.735 743.088 705.103 742.519 705.356C741.95 705.608 741.334 705.738 740.711 705.739C740.148 705.738 739.591 705.633 739.067 705.428V705.428Z" fill="white"/>
<path id="Vector_17" d="M747.816 564.327C755.07 564.327 760.95 558.447 760.95 551.193C760.95 543.94 755.07 538.06 747.816 538.06C740.562 538.06 734.682 543.94 734.682 551.193C734.682 558.447 740.562 564.327 747.816 564.327Z" fill="#6C63FF"/>
<path id="Vector_18" d="M949.72 594.097H741.332C740.411 594.098 739.5 593.918 738.649 593.566C737.798 593.215 737.025 592.699 736.373 592.048C735.722 591.398 735.205 590.625 734.853 589.775C734.5 588.924 734.319 588.013 734.319 587.092C734.319 586.172 734.5 585.26 734.853 584.41C735.205 583.559 735.722 582.787 736.373 582.136C737.025 581.486 737.798 580.97 738.649 580.618C739.5 580.267 740.411 580.087 741.332 580.088H949.72C951.576 580.09 953.356 580.829 954.668 582.142C955.98 583.456 956.716 585.236 956.716 587.092C956.716 588.949 955.98 590.729 954.668 592.042C953.356 593.356 951.576 594.095 949.72 594.097V594.097Z" fill="#E6E6E6"/>
<path id="Vector_19" d="M739.067 705.428C738.219 705.102 737.49 704.527 736.978 703.777C736.465 703.028 736.193 702.14 736.196 701.232V654.199C736.195 652.607 735.561 651.081 734.436 649.955C733.31 648.829 731.784 648.196 730.192 648.194H720.56C716.581 648.189 712.766 646.607 709.952 643.793C707.138 640.979 705.556 637.164 705.551 633.185V538.622C705.556 534.643 707.138 530.828 709.952 528.014C712.766 525.2 716.581 523.617 720.56 523.613H1060.29C1064.26 523.617 1068.08 525.2 1070.89 528.014C1073.71 530.828 1075.29 534.643 1075.29 538.622V633.185C1075.29 637.164 1073.71 640.979 1070.89 643.793C1068.08 646.607 1064.26 648.189 1060.29 648.194H798.066C797.234 648.195 796.411 648.368 795.649 648.704C794.887 649.039 794.203 649.528 793.64 650.141L744.018 704.275C743.599 704.735 743.088 705.103 742.519 705.356C741.95 705.608 741.334 705.738 740.711 705.739C740.148 705.738 739.591 705.633 739.067 705.428V705.428ZM720.56 525.613C717.111 525.617 713.805 526.989 711.366 529.428C708.927 531.866 707.555 535.173 707.551 538.622V633.185C707.555 636.634 708.927 639.94 711.366 642.379C713.805 644.818 717.111 646.19 720.56 646.194H730.192C732.314 646.196 734.349 647.041 735.849 648.541C737.35 650.042 738.194 652.077 738.196 654.199V701.232C738.197 701.736 738.349 702.229 738.633 702.645C738.918 703.061 739.322 703.381 739.792 703.564C740.262 703.747 740.776 703.783 741.267 703.669C741.758 703.555 742.203 703.295 742.544 702.923L792.166 648.79C792.916 647.973 793.828 647.32 794.844 646.873C795.859 646.426 796.957 646.195 798.066 646.194H1060.29C1063.73 646.19 1067.04 644.818 1069.48 642.379C1071.92 639.94 1073.29 636.634 1073.29 633.185V538.622C1073.29 535.173 1071.92 531.866 1069.48 529.428C1067.04 526.989 1063.73 525.617 1060.29 525.613H720.56Z" fill="#3F3D56"/>
<path id="Vector_20" d="M1050.41 623.867H741.332C740.411 623.868 739.5 623.687 738.649 623.336C737.798 622.984 737.025 622.469 736.373 621.818C735.722 621.167 735.205 620.395 734.853 619.545C734.5 618.694 734.319 617.783 734.319 616.862C734.319 615.941 734.5 615.03 734.853 614.18C735.205 613.329 735.722 612.557 736.373 611.906C737.025 611.255 737.798 610.74 738.649 610.388C739.5 610.037 740.411 609.856 741.332 609.857H1050.41C1052.27 609.857 1054.05 610.595 1055.36 611.909C1056.68 613.223 1057.42 615.004 1057.42 616.862C1057.42 618.72 1056.68 620.501 1055.36 621.815C1054.05 623.129 1052.27 623.867 1050.41 623.867Z" fill="#E6E6E6"/>
</g>
<g id="SecondHead">
<path id="Vector_21" d="M633.178 734.71C619.246 743.631 603.105 748.496 586.564 748.759C570.023 749.022 553.736 744.674 539.527 736.2C542.027 731.548 545.194 727.286 548.928 723.55C554.689 717.762 561.7 713.371 569.423 710.715C577.146 708.059 585.375 707.209 593.478 708.229C601.581 709.25 609.342 712.114 616.165 716.603C622.988 721.091 628.692 727.084 632.837 734.12C632.947 734.31 633.067 734.51 633.178 734.71Z" fill="#6C63FF"/>
<path id="Vector_22" d="M582.443 686.89C606.854 686.89 626.644 667.1 626.644 642.688C626.644 618.277 606.854 598.487 582.443 598.487C558.031 598.487 538.241 618.277 538.241 642.688C538.241 667.1 558.031 686.89 582.443 686.89Z" fill="#2F2E41"/>
<path id="Vector_23" d="M615.333 673.866C624.048 657.923 618.188 637.934 602.246 629.219C586.303 620.504 566.314 626.363 557.599 642.306C548.884 658.248 554.744 678.237 570.686 686.952C586.629 695.667 606.618 689.808 615.333 673.866Z" fill="#FFB8B8"/>
<path id="Vector_24" d="M519.644 394.381C533.177 394.381 544.147 393.163 544.147 391.661C544.147 390.159 533.177 388.941 519.644 388.941C506.11 388.941 495.14 390.159 495.14 391.661C495.14 393.163 506.11 394.381 519.644 394.381Z" fill="#F2F2F2"/>
<path id="Vector_25" d="M551.898 637.393C559.416 642.574 568.338 645.332 577.469 645.296C574.212 647.554 570.504 649.079 566.601 649.767C578.74 652.371 591.287 652.441 603.454 649.974C606.159 649.54 608.769 648.644 611.169 647.324C612.365 646.656 613.408 645.744 614.228 644.646C615.048 643.549 615.629 642.292 615.931 640.955C616.74 636.336 613.141 632.14 609.4 629.311C603.673 625.047 597.07 622.109 590.069 620.71C583.067 619.311 575.842 619.486 568.916 621.222C564.394 622.391 559.864 624.366 556.926 627.997C553.989 631.629 553.119 637.228 555.917 640.968L551.898 637.393Z" fill="#2F2E41"/>
<path id="Vector_26" d="M585.147 749.77C563.5 749.764 542.581 741.952 526.227 727.769C509.873 713.586 499.181 693.982 496.112 672.553C493.043 651.124 497.804 629.307 509.52 611.104C521.236 592.901 539.122 579.532 559.898 573.45C580.673 567.368 602.945 568.981 622.628 577.992C642.311 587.003 658.085 602.809 667.057 622.51C676.028 642.211 677.596 664.486 671.473 685.249C665.349 706.013 651.945 723.872 633.718 735.552C619.224 744.846 602.365 749.781 585.147 749.77V749.77ZM585.147 571.77C567.74 571.769 550.724 576.929 536.25 586.599C521.775 596.269 510.494 610.014 503.832 626.096C497.169 642.177 495.426 659.873 498.822 676.946C502.217 694.019 510.599 709.701 522.908 722.01C535.217 734.319 550.899 742.701 567.972 746.096C585.044 749.492 602.741 747.748 618.822 741.086C634.904 734.424 648.649 723.142 658.319 708.668C667.989 694.194 673.149 677.177 673.147 659.77C673.121 636.439 663.841 614.072 647.344 597.574C630.846 581.077 608.478 571.797 585.147 571.77V571.77Z" fill="#3F3D56"/>
</g>
<path id="Vector_27" d="M738.644 714.38C752.177 714.38 763.147 713.163 763.147 711.661C763.147 710.159 752.177 708.941 738.644 708.941C725.11 708.941 714.14 710.159 714.14 711.661C714.14 713.163 725.11 714.38 738.644 714.38Z" fill="#F2F2F2"/>
</g>
</svg>
